<!-- favicon.svg -->
<svg xmlns="http://www.w3.org/2000/svg" viewBox="0 0 128 128">
  <defs>
    <linearGradient id="g" x1="0" y1="0" x2="1" y2="1">
      <stop offset="0" stop-color="#6ea8ff"/>
      <stop offset="1" stop-color="#7c5cff"/>
    </linearGradient>
  </defs>
  <rect x="8" y="8" width="112" height="112" rx="28" fill="#0b1020"/>
  <rect x="14" y="14" width="100" height="100" rx="24" fill="url(#g)" opacity="0.18"/>
  <circle cx="44" cy="42" r="6" fill="#6ea8ff" opacity="0.9"/>
  <path d="M64 32c4.4 0 8 3.6 8 8v12h12c4.4 0 8 3.6 8 8s-3.6 8-8 8H72v12c0 4.4-3.6 8-8 8s-8-3.6-8-8V76H44c-4.4 0-8-3.6-8-8s3.6-8 8-8h12V40c0-4.4 3.6-8 8-8z"
        fill="#eaf2ff"/>
  <path d="M30 92c10 10 24 16 40 16s30-6 40-16" fill="none" stroke="#eaf2ff" stroke-width="8" opacity="0.18" stroke-linecap="round"/>
</svg>
