<svg width="64" height="64" viewBox="0 0 256 256" fill="none" xmlns="http://www.w3.org/2000/svg">
  <defs>
    <linearGradient id="b" x1="32" y1="16" x2="224" y2="240" gradientUnits="userSpaceOnUse">
      <stop stop-color="#7CC6F3"/>
      <stop offset="1" stop-color="#78C52C"/>
    </linearGradient>
    <linearGradient id="w" x1="44" y1="164" x2="212" y2="176" gradientUnits="userSpaceOnUse">
      <stop stop-color="#38BDF8"/>
      <stop offset="1" stop-color="#0EA5E9"/>
    </linearGradient>
  </defs>
  <rect x="12" y="12" width="232" height="232" rx="56" fill="#F8FAFC" stroke="url(#b)" stroke-width="8"/>
  <path d="M66 120C70 82 98 56 128 56C158 56 186 82 190 120" stroke="url(#b)" stroke-width="10" stroke-linecap="round"/>
  <circle cx="92" cy="106" r="11" fill="#F59E0B"/>
  <circle cx="128" cy="92" r="13" fill="#0EA5E9"/>
  <circle cx="164" cy="106" r="11" fill="#84CC16"/>
  <path d="M72 156C78 136 86 122 92 122C98 122 106 136 112 156H72Z" fill="#FDBA74"/>
  <path d="M100 170C106 130 116 108 128 108C140 108 150 130 156 170H100Z" fill="#38BDF8"/>
  <path d="M144 156C150 136 158 122 164 122C170 122 178 136 184 156H144Z" fill="#86EFAC"/>
  <path d="M50 170C76 156 104 150 132 152C158 154 184 160 206 174V194H50V170Z" fill="#84CC16"/>
  <path d="M42 198C74 186 108 184 132 188C162 193 188 196 214 190C194 210 74 214 42 198Z" fill="url(#w)"/>
</svg>
