<svg xmlns="http://www.w3.org/2000/svg" width="96" height="96" viewBox="0 0 96 96" role="img" aria-label="NYC Medical Advocates logo">
  <defs>
    <linearGradient id="grad" x1="0" y1="0" x2="1" y2="1">
      <stop offset="0" stop-color="#60a5fa"/>
      <stop offset="1" stop-color="#a78bfa"/>
    </linearGradient>
  </defs>

  <!-- Outer rounded square -->
  <rect x="6" y="6" width="84" height="84" rx="22" fill="#0b1220"/>
  <rect x="10" y="10" width="76" height="76" rx="18" fill="url(#grad)" opacity="0.14"/>

  <!-- Community ring -->
  <circle cx="48" cy="48" r="30" fill="none" stroke="rgba(234,242,255,0.22)" stroke-width="3"/>

  <!-- People heads only -->
  <g fill="#eaf2ff" opacity="0.88">
    <circle cx="48" cy="16.7" r="2.6"/>
    <circle cx="66.8" cy="23.2" r="2.6"/>
    <circle cx="78.0" cy="40.0" r="2.6"/>
    <circle cx="73.8" cy="59.5" r="2.6"/>
    <circle cx="58.8" cy="73.8" r="2.6"/>
    <circle cx="37.2" cy="73.8" r="2.6"/>
    <circle cx="22.2" cy="59.5" r="2.6"/>
    <circle cx="18.0" cy="40.0" r="2.6"/>
    <circle cx="29.2" cy="23.2" r="2.6"/>
  </g>

  <!-- Shield (advocacy/protection) -->
  <path d="
    M48 20
    C58 20 66 23.5 72 27.2
    V50.5
    C72 64.8 61.2 74.6 48 79.8
    C34.8 74.6 24 64.8 24 50.5
    V27.2
    C30 23.5 38 20 48 20
    Z"
    fill="url(#grad)" opacity="0.96"/>

  <!-- Medical cross -->
  <rect x="44.2" y="35" width="7.6" height="21" rx="2.2" fill="#0b1220" opacity="0.92"/>
  <rect x="37" y="41.8" width="22" height="7.6" rx="2.2" fill="#0b1220" opacity="0.92"/>

  <!-- NYC tag -->
  <rect x="30" y="59.8" width="36" height="11.2" rx="5.6" fill="#0b1220" opacity="0.86"/>
  <text x="48" y="67.8" text-anchor="middle"
        font-family="ui-sans-serif, system-ui, -apple-system, Segoe UI, Roboto, Arial"
        font-size="9.2" font-weight="850" fill="#eaf2ff" letter-spacing="1.2">
    NYC
  </text>
</svg>
