<svg width="256" height="256" viewBox="0 0 256 256" fill="none" xmlns="http://www.w3.org/2000/svg">
  <defs>
    <linearGradient id="sky" x1="128" y1="24" x2="128" y2="232" gradientUnits="userSpaceOnUse">
      <stop stop-color="#FFF7CC"/>
      <stop offset="1" stop-color="#E0F2FE"/>
    </linearGradient>

    <linearGradient id="sunArc" x1="46" y1="84" x2="210" y2="84" gradientUnits="userSpaceOnUse">
      <stop stop-color="#F59E0B"/>
      <stop offset="1" stop-color="#84CC16"/>
    </linearGradient>

    <linearGradient id="wave" x1="38" y1="172" x2="218" y2="202" gradientUnits="userSpaceOnUse">
      <stop stop-color="#38BDF8"/>
      <stop offset="1" stop-color="#0EA5E9"/>
    </linearGradient>

    <linearGradient id="hill" x1="44" y1="158" x2="192" y2="158" gradientUnits="userSpaceOnUse">
      <stop stop-color="#84CC16"/>
      <stop offset="1" stop-color="#22C55E"/>
    </linearGradient>
  </defs>

  <rect x="8" y="8" width="240" height="240" rx="56" fill="url(#sky)"/>
  <rect x="8" y="8" width="240" height="240" rx="56" stroke="#DBEAFE" stroke-width="6"/>

  <!-- outer arc -->
  <path d="M46 118C50 76 84 42 128 42C172 42 206 76 210 118" stroke="url(#sunArc)" stroke-width="10" stroke-linecap="round"/>

  <!-- sun rays -->
  <g stroke="#FBBF24" stroke-width="6" stroke-linecap="round" opacity="0.95">
    <path d="M128 30V16"/>
    <path d="M97 35L92 21"/>
    <path d="M159 35L164 21"/>
    <path d="M72 52L62 41"/>
    <path d="M184 52L194 41"/>
  </g>

  <!-- people -->
  <circle cx="84" cy="104" r="11" fill="#F59E0B"/>
  <circle cx="128" cy="90" r="13" fill="#0EA5E9"/>
  <circle cx="172" cy="104" r="11" fill="#84CC16"/>

  <path d="M64 148C67 126 75 116 84 116C93 116 101 126 104 148H64Z" fill="#FDBA74"/>
  <path d="M98 158C102 121 113 104 128 104C143 104 154 121 158 158H98Z" fill="#38BDF8"/>
  <path d="M152 148C155 126 163 116 172 116C181 116 189 126 192 148H152Z" fill="#86EFAC"/>

  <!-- hills -->
  <path d="M44 164C68 148 91 142 122 144C144 145 169 152 192 166V182H44V164Z" fill="url(#hill)"/>
  <path d="M34 188C58 172 88 162 126 164C165 166 194 175 222 192C181 206 92 210 34 188Z" fill="url(#wave)"/>

  <!-- leaf accents -->
  <path d="M54 148C66 147 75 151 82 161C69 162 58 158 54 148Z" fill="#65A30D"/>
  <path d="M71 142C82 143 91 148 96 159C84 159 75 154 71 142Z" fill="#84CC16"/>
  <path d="M174 160C183 150 193 146 205 147C200 158 189 163 174 160Z" fill="#65A30D"/>
</svg>
